<svg width="118" height="40" viewBox="0 0 118 40" fill="none" xmlns="http://www.w3.org/2000/svg">
<path d="M40 36V23.4511H41.3983V24.63C41.728 24.1687 42.1003 23.8242 42.5153 23.5964C42.9303 23.3629 43.4333 23.2461 44.0245 23.2461C44.7976 23.2461 45.4797 23.4455 46.0708 23.8441C46.662 24.2427 47.1082 24.8065 47.4095 25.5355C47.7108 26.2588 47.8614 27.0532 47.8614 27.9188C47.8614 28.8471 47.6937 29.6843 47.3583 30.4303C47.0286 31.1707 46.5455 31.7402 45.9088 32.1388C45.2779 32.5318 44.6128 32.7282 43.9136 32.7282C43.4021 32.7282 42.9416 32.62 42.5324 32.4036C42.1288 32.1872 41.7962 31.9139 41.5348 31.5836V36H40ZM41.3898 28.0384C41.3898 29.2059 41.6257 30.0687 42.0975 30.6268C42.5693 31.1849 43.1406 31.464 43.8113 31.464C44.4934 31.464 45.0761 31.1764 45.5592 30.6012C46.0481 30.0203 46.2925 29.1233 46.2925 27.9103C46.2925 26.7542 46.0538 25.8886 45.5763 25.3134C45.1045 24.7382 44.5389 24.4506 43.8795 24.4506C43.2258 24.4506 42.646 24.7581 42.1401 25.3732C41.6399 25.9826 41.3898 26.871 41.3898 28.0384Z" fill="#131821"/>
<path d="M49.7287 21.7683V20H51.2634V21.7683H49.7287ZM49.7287 32.5232V23.4511H51.2634V32.5232H49.7287Z" fill="#131821"/>
<path d="M53.6082 32.5232V23.4511H54.9895V24.7411C55.6546 23.7444 56.6152 23.2461 57.8714 23.2461C58.4171 23.2461 58.9174 23.3458 59.3721 23.5451C59.8325 23.7387 60.1764 23.995 60.4038 24.3139C60.6312 24.6329 60.7903 25.0116 60.8813 25.4501C60.9381 25.7348 60.9665 26.2331 60.9665 26.945V32.5232H59.4318V27.0048C59.4318 26.3784 59.3721 25.9114 59.2527 25.6038C59.1334 25.2906 58.9202 25.0429 58.6132 24.8607C58.312 24.6727 57.9567 24.5788 57.5474 24.5788C56.8937 24.5788 56.3282 24.7866 55.8507 25.2023C55.3789 25.6181 55.143 26.4068 55.143 27.5686V32.5232H53.6082Z" fill="#131821"/>
<path d="M69.5271 29.6017L71.113 29.7982C70.8629 30.7265 70.3997 31.4469 69.7232 31.9594C69.0468 32.472 68.1828 32.7282 67.1312 32.7282C65.8067 32.7282 64.7551 32.3211 63.9764 31.5067C63.2033 30.6866 62.8168 29.5391 62.8168 28.0641C62.8168 26.5378 63.209 25.3533 63.9934 24.5104C64.7779 23.6676 65.7954 23.2461 67.0459 23.2461C68.2567 23.2461 69.2457 23.659 70.0131 24.4848C70.7805 25.3106 71.1642 26.4723 71.1642 27.9701C71.1642 28.0612 71.1613 28.1979 71.1557 28.3801H64.4027C64.4596 29.3768 64.7409 30.1399 65.2468 30.6695C65.7527 31.1991 66.3837 31.464 67.1397 31.464C67.7024 31.464 68.1828 31.3159 68.5807 31.0198C68.9786 30.7236 69.2941 30.2509 69.5271 29.6017ZM64.488 27.1159H69.5442C69.476 26.3527 69.2827 25.7804 68.9644 25.3988C68.4755 24.8065 67.8417 24.5104 67.063 24.5104C66.3581 24.5104 65.7641 24.7468 65.2809 25.2194C64.8035 25.6921 64.5391 26.3243 64.488 27.1159Z" fill="#131821"/>
<path d="M78.9574 31.4042C78.3889 31.8882 77.8404 32.2299 77.3118 32.4293C76.7888 32.6286 76.2261 32.7282 75.6235 32.7282C74.6288 32.7282 73.8642 32.4862 73.3299 32.0021C72.7956 31.5124 72.5284 30.8888 72.5284 30.1313C72.5284 29.6871 72.6279 29.2828 72.8268 28.9183C73.0315 28.5481 73.2958 28.252 73.6198 28.0299C73.9495 27.8078 74.319 27.6398 74.7282 27.5259C75.0295 27.4462 75.4843 27.3693 76.0925 27.2952C77.3317 27.1472 78.244 26.9706 78.8295 26.7656C78.8352 26.5549 78.838 26.4211 78.838 26.3641C78.838 25.7377 78.693 25.2963 78.4031 25.04C78.0109 24.6926 77.4283 24.519 76.6552 24.519C75.9333 24.519 75.399 24.6471 75.0522 24.9034C74.7112 25.1539 74.4582 25.601 74.2934 26.2445L72.7927 26.0395C72.9292 25.396 73.1537 24.8777 73.4663 24.4848C73.779 24.0861 74.2309 23.7815 74.822 23.5707C75.4132 23.3543 76.0982 23.2461 76.8769 23.2461C77.65 23.2461 78.2781 23.3372 78.7613 23.5195C79.2444 23.7017 79.5997 23.9324 79.8271 24.2114C80.0544 24.4848 80.2136 24.8322 80.3045 25.2536C80.3557 25.5156 80.3813 25.9883 80.3813 26.6716V28.7218C80.3813 30.1513 80.4125 31.0568 80.4751 31.4383C80.5433 31.8142 80.674 32.1758 80.8673 32.5232H79.2643C79.1052 32.2043 79.0028 31.8313 78.9574 31.4042ZM78.8295 27.9701C78.2724 28.1979 77.4368 28.3915 76.3227 28.551C75.6917 28.6421 75.2455 28.7446 74.984 28.8585C74.7226 28.9724 74.5208 29.1404 74.3787 29.3625C74.2366 29.5789 74.1655 29.821 74.1655 30.0886C74.1655 30.4987 74.319 30.8404 74.6259 31.1137C74.9386 31.3871 75.3933 31.5238 75.9902 31.5238C76.5813 31.5238 77.1071 31.3956 77.5676 31.1393C78.028 30.8774 78.3662 30.5214 78.5822 30.0715C78.747 29.7242 78.8295 29.2116 78.8295 28.5339V27.9701Z" fill="#131821"/>
<path d="M82.7687 36V23.4511H84.167V24.63C84.4967 24.1687 84.869 23.8242 85.284 23.5964C85.699 23.3629 86.202 23.2461 86.7932 23.2461C87.5662 23.2461 88.2484 23.4455 88.8395 23.8441C89.4307 24.2427 89.8769 24.8065 90.1782 25.5355C90.4795 26.2588 90.6301 27.0532 90.6301 27.9188C90.6301 28.8471 90.4624 29.6843 90.127 30.4303C89.7973 31.1707 89.3142 31.7402 88.6775 32.1388C88.0466 32.5318 87.3815 32.7282 86.6823 32.7282C86.1707 32.7282 85.7103 32.62 85.301 32.4036C84.8975 32.1872 84.5649 31.9139 84.3035 31.5836V36H82.7687ZM84.1585 28.0384C84.1585 29.2059 84.3944 30.0687 84.8662 30.6268C85.338 31.1849 85.9093 31.464 86.58 31.464C87.2621 31.464 87.8448 31.1764 88.3279 30.6012C88.8168 30.0203 89.0612 29.1233 89.0612 27.9103C89.0612 26.7542 88.8225 25.8886 88.345 25.3134C87.8732 24.7382 87.3076 24.4506 86.6482 24.4506C85.9945 24.4506 85.4147 24.7581 84.9088 25.3732C84.4086 25.9826 84.1585 26.871 84.1585 28.0384Z" fill="#131821"/>
<path d="M92.4888 36V23.4511H93.8872V24.63C94.2169 24.1687 94.5892 23.8242 95.0042 23.5964C95.4191 23.3629 95.9222 23.2461 96.5133 23.2461C97.2864 23.2461 97.9685 23.4455 98.5597 23.8441C99.1509 24.2427 99.5971 24.8065 99.8983 25.5355C100.2 26.2588 100.35 27.0532 100.35 27.9188C100.35 28.8471 100.183 29.6843 99.8472 30.4303C99.5175 31.1707 99.0343 31.7402 98.3977 32.1388C97.7667 32.5318 97.1017 32.7282 96.4025 32.7282C95.8909 32.7282 95.4305 32.62 95.0212 32.4036C94.6176 32.1872 94.2851 31.9139 94.0236 31.5836V36H92.4888ZM93.8787 28.0384C93.8787 29.2059 94.1146 30.0687 94.5864 30.6268C95.0582 31.1849 95.6294 31.464 96.3002 31.464C96.9823 31.464 97.5649 31.1764 98.0481 30.6012C98.5369 30.0203 98.7814 29.1233 98.7814 27.9103C98.7814 26.7542 98.5426 25.8886 98.0652 25.3134C97.5934 24.7382 97.0278 24.4506 96.3684 24.4506C95.7147 24.4506 95.1349 24.7581 94.629 25.3732C94.1288 25.9826 93.8787 26.871 93.8787 28.0384Z" fill="#131821"/>
<path d="M102.175 32.5232V20H103.71V32.5232H102.175Z" fill="#131821"/>
<path d="M112.296 29.6017L113.882 29.7982C113.632 30.7265 113.168 31.4469 112.492 31.9594C111.815 32.472 110.951 32.7282 109.9 32.7282C108.575 32.7282 107.524 32.3211 106.745 31.5067C105.972 30.6866 105.585 29.5391 105.585 28.0641C105.585 26.5378 105.978 25.3533 106.762 24.5104C107.547 23.6676 108.564 23.2461 109.815 23.2461C111.025 23.2461 112.014 23.659 112.782 24.4848C113.549 25.3106 113.933 26.4723 113.933 27.9701C113.933 28.0612 113.93 28.1979 113.924 28.3801H107.171C107.228 29.3768 107.51 30.1399 108.016 30.6695C108.521 31.1991 109.152 31.464 109.908 31.464C110.471 31.464 110.951 31.3159 111.349 31.0198C111.747 30.7236 112.063 30.2509 112.296 29.6017ZM107.257 27.1159H112.313C112.245 26.3527 112.051 25.7804 111.733 25.3988C111.244 24.8065 110.61 24.5104 109.832 24.5104C109.127 24.5104 108.533 24.7468 108.05 25.2194C107.572 25.6921 107.308 26.3243 107.257 27.1159Z" fill="#131821"/>
<path d="M116.252 32.5232V30.772H118V32.5232H116.252Z" fill="#131821"/>
<path fill-rule="evenodd" clip-rule="evenodd" d="M5.75658 14.5161L0 7.41936L6.57895 8.54839L5.75658 0.967742L10.5263 6.45161L12.5 0L14.4737 6.45161L19.2434 0.967742L18.4211 8.54839L25 7.41936L19.2434 14.5161H5.75658ZM8.07206 10.1146L7.51478 4.97752L11.0926 9.09101L12.5 4.49046L13.9074 9.09101L17.4852 4.97752L16.9279 10.1146L21.8124 9.27632L18.6088 13.2258H6.39123L3.18759 9.27632L8.07206 10.1146Z" fill="#4066A5"/>
<path fill-rule="evenodd" clip-rule="evenodd" d="M20.0658 40H5.26316L0.328947 35.1613V20.6452L5.26316 15.8065H20.0658L25 20.6452V35.1613L20.0658 40ZM7.67582 27.2055L11.8448 23.1172L5.72958 17.1738L1.64474 21.1796V21.344L7.67582 27.2055ZM17.9841 17.0968H7.51948L12.7752 22.2048L17.9841 17.0968ZM8.61039 28.1138L12.7794 24.0255L16.8012 27.9342L12.6322 32.0225L8.61039 28.1138ZM13.7098 23.1131L17.7316 27.0218L23.6842 21.1844V21.1796L19.6828 17.2557L13.7098 23.1131ZM13.5667 32.9308L17.7357 28.8425L23.6842 34.6238V34.6268L19.5208 38.7097H19.5127L13.5667 32.9308ZM18.6662 27.9301L23.6842 32.8071V23.0092L18.6662 27.9301ZM6.7454 28.1179L1.64474 23.1606V33.1199L6.7454 28.1179ZM7.67998 29.0262L11.7017 32.9349L5.81302 38.7097H5.80818L1.80679 34.7857L7.67998 29.0262ZM17.6435 38.7097H7.67383L12.6363 33.8432L17.6435 38.7097Z" fill="#4066A5"/>
</svg>
