<svg width="126" height="126" viewBox="0 0 126 126" fill="none" xmlns="http://www.w3.org/2000/svg">
<g filter="url(#filter0_d)">
<circle cx="63" cy="43" r="23" fill="#C13584"/>
</g>
<path d="M56.3514 49.6498C54.8354 48.1338 55.0085 46.1079 55.0085 42.9959C55.0085 39.9559 54.8084 37.8821 56.3514 36.3441C57.2591 35.4926 58.4631 35.0283 59.7075 35.0506C61.1805 34.9846 64.8274 34.9816 66.2994 35.0506C69.3104 35.1896 70.8184 36.892 70.9504 39.702C71.0154 41.174 71.0194 44.8198 70.9504 46.2928C70.8414 48.6718 69.7224 49.9931 68.2394 50.5721C67.1504 50.9941 66.0865 50.992 63.0035 50.992C62.3785 50.992 61.7925 51.0008 61.2425 51.0008C59.1485 50.9988 57.5744 50.8728 56.3514 49.6498ZM68.6295 48.6307C69.6215 47.6307 69.5585 46.2909 69.5585 42.9959C69.5585 40.8609 69.5505 40.608 69.5115 39.765C69.3445 36.065 66.5565 36.4398 63.0045 36.4398L62.9734 36.4198C60.8364 36.4198 60.5854 36.4308 59.7364 36.4598C56.0364 36.6498 56.4195 39.3027 56.4195 42.9847C56.4195 45.7077 56.2195 47.5029 57.3395 48.6209C58.3145 49.5989 59.6505 49.5487 62.9835 49.5487C66.2215 49.5497 67.6215 49.6387 68.6295 48.6307ZM58.9015 42.9989C58.9008 42.4595 59.0066 41.9255 59.2127 41.4271C59.4188 40.9287 59.7212 40.4759 60.1027 40.0946C60.4841 39.7132 60.937 39.4109 61.4355 39.2049C61.9339 38.9989 62.4681 38.8931 63.0074 38.8939C64.0962 38.8939 65.1403 39.3262 65.9102 40.096C66.68 40.8659 67.1125 41.9102 67.1125 42.9989C67.1109 44.0877 66.6769 45.1314 65.9059 45.9002C65.135 46.6691 64.0903 47.1003 63.0015 47.099C61.9141 47.099 60.8713 46.6667 60.1024 45.8978C59.3335 45.1289 58.9015 44.0863 58.9015 42.9989ZM60.3415 42.9989C60.3414 43.3489 60.4102 43.6954 60.5441 44.0189C60.6779 44.3423 60.8742 44.6366 61.1216 44.8841C61.3691 45.1317 61.663 45.3278 61.9864 45.4618C62.3098 45.5958 62.6564 45.6649 63.0065 45.6649C63.3565 45.665 63.7031 45.5962 64.0265 45.4623C64.3499 45.3283 64.6437 45.1317 64.8912 44.8841C65.1386 44.6365 65.3348 44.3424 65.4685 44.0189C65.6022 43.6954 65.6709 43.3489 65.6705 42.9989C65.6706 42.649 65.6018 42.3026 65.468 41.9793C65.3341 41.6561 65.1379 41.3625 64.8905 41.1151C64.6431 40.8677 64.3493 40.6713 64.0261 40.5374C63.7028 40.4036 63.3563 40.3347 63.0065 40.3348C62.6563 40.3343 62.3094 40.4028 61.9858 40.5365C61.6621 40.6701 61.3679 40.8662 61.1201 41.1136C60.8723 41.361 60.6758 41.6549 60.5416 41.9784C60.4075 42.3018 60.3384 42.6487 60.3384 42.9989H60.3415ZM66.3155 38.7318C66.3156 38.6058 66.3405 38.4814 66.3889 38.3651C66.4372 38.2488 66.5079 38.143 66.597 38.054C66.6862 37.9651 66.792 37.8946 66.9084 37.8465C67.0248 37.7985 67.1495 37.7736 67.2754 37.7738C67.5296 37.7738 67.7734 37.8749 67.9532 38.0545C68.1331 38.2342 68.2342 38.4776 68.2344 38.7318C68.2346 38.8578 68.2099 38.9826 68.1617 39.099C68.1136 39.2154 68.0429 39.3214 67.9539 39.4105C67.8648 39.4996 67.759 39.5699 67.6426 39.618C67.5262 39.6662 67.4014 39.6909 67.2754 39.6908C67.1489 39.6913 67.0236 39.6666 66.9066 39.6185C66.7895 39.5704 66.6832 39.4999 66.5937 39.4105C66.5042 39.3211 66.4333 39.2145 66.385 39.0975C66.3367 38.9805 66.312 38.8554 66.3124 38.7289L66.3155 38.7318Z" fill="white"/>
<defs>
<filter id="filter0_d" x="0" y="0" width="126" height="126" filterUnits="userSpaceOnUse" color-interpolation-filters="sRGB">
<feFlood flood-opacity="0" result="BackgroundImageFix"/>
<feColorMatrix in="SourceAlpha" type="matrix" values="0 0 0 0 0 0 0 0 0 0 0 0 0 0 0 0 0 0 127 0"/>
<feOffset dy="20"/>
<feGaussianBlur stdDeviation="20"/>
<feColorMatrix type="matrix" values="0 0 0 0 0.0745098 0 0 0 0 0.0941176 0 0 0 0 0.129412 0 0 0 0.3 0"/>
<feBlend mode="normal" in2="BackgroundImageFix" result="effect1_dropShadow"/>
<feBlend mode="normal" in="SourceGraphic" in2="effect1_dropShadow" result="shape"/>
</filter>
</defs>
</svg>
