<svg width="46" height="46" viewBox="0 0 46 46" fill="none" xmlns="http://www.w3.org/2000/svg">
<circle cx="23" cy="23" r="22" stroke="#E2E3E4" stroke-width="2"/>
<path opacity="0.3" d="M16.3514 29.6498C14.8354 28.1338 15.0085 26.1079 15.0085 22.9959C15.0085 19.9559 14.8084 17.8821 16.3514 16.3441C17.2591 15.4926 18.4631 15.0283 19.7075 15.0506C21.1805 14.9846 24.8274 14.9816 26.2994 15.0506C29.3104 15.1896 30.8184 16.892 30.9504 19.702C31.0154 21.174 31.0194 24.8198 30.9504 26.2928C30.8414 28.6718 29.7224 29.9931 28.2394 30.5721C27.1504 30.9941 26.0865 30.992 23.0035 30.992C22.3785 30.992 21.7925 31.0008 21.2425 31.0008C19.1485 30.9988 17.5744 30.8728 16.3514 29.6498ZM28.6295 28.6307C29.6215 27.6307 29.5585 26.2909 29.5585 22.9959C29.5585 20.8609 29.5505 20.608 29.5115 19.765C29.3445 16.065 26.5565 16.4398 23.0045 16.4398L22.9734 16.4198C20.8364 16.4198 20.5854 16.4308 19.7364 16.4598C16.0364 16.6498 16.4195 19.3027 16.4195 22.9847C16.4195 25.7077 16.2195 27.5029 17.3395 28.6209C18.3145 29.5989 19.6505 29.5487 22.9835 29.5487C26.2215 29.5497 27.6215 29.6387 28.6295 28.6307ZM18.9015 22.9989C18.9008 22.4595 19.0066 21.9255 19.2127 21.4271C19.4188 20.9287 19.7212 20.4759 20.1027 20.0946C20.4841 19.7132 20.937 19.4109 21.4355 19.2049C21.9339 18.9989 22.4681 18.8931 23.0074 18.8939C24.0962 18.8939 25.1403 19.3262 25.9102 20.096C26.68 20.8659 27.1125 21.9102 27.1125 22.9989C27.1109 24.0877 26.6769 25.1314 25.9059 25.9002C25.135 26.6691 24.0903 27.1003 23.0015 27.099C21.9141 27.099 20.8713 26.6667 20.1024 25.8978C19.3335 25.1289 18.9015 24.0863 18.9015 22.9989ZM20.3415 22.9989C20.3414 23.3489 20.4102 23.6954 20.5441 24.0189C20.6779 24.3423 20.8742 24.6366 21.1216 24.8841C21.3691 25.1317 21.663 25.3278 21.9864 25.4618C22.3098 25.5958 22.6564 25.6649 23.0065 25.6649C23.3565 25.665 23.7031 25.5962 24.0265 25.4623C24.3499 25.3283 24.6437 25.1317 24.8912 24.8841C25.1386 24.6365 25.3348 24.3424 25.4685 24.0189C25.6022 23.6954 25.6709 23.3489 25.6705 22.9989C25.6706 22.649 25.6018 22.3026 25.468 21.9793C25.3341 21.6561 25.1379 21.3625 24.8905 21.1151C24.6431 20.8677 24.3493 20.6713 24.0261 20.5374C23.7028 20.4036 23.3563 20.3347 23.0065 20.3348C22.6563 20.3343 22.3094 20.4028 21.9858 20.5365C21.6621 20.6701 21.3679 20.8662 21.1201 21.1136C20.8723 21.361 20.6758 21.6549 20.5416 21.9784C20.4075 22.3018 20.3384 22.6487 20.3384 22.9989H20.3415ZM26.3155 18.7318C26.3156 18.6058 26.3405 18.4814 26.3889 18.3651C26.4372 18.2488 26.5079 18.143 26.597 18.054C26.6862 17.9651 26.792 17.8946 26.9084 17.8465C27.0248 17.7985 27.1495 17.7736 27.2754 17.7738C27.5296 17.7738 27.7734 17.8749 27.9532 18.0545C28.1331 18.2342 28.2342 18.4776 28.2344 18.7318C28.2346 18.8578 28.2099 18.9826 28.1617 19.099C28.1136 19.2154 28.0429 19.3214 27.9539 19.4105C27.8648 19.4996 27.759 19.5699 27.6426 19.618C27.5262 19.6662 27.4014 19.6909 27.2754 19.6908C27.1489 19.6913 27.0236 19.6666 26.9066 19.6185C26.7895 19.5704 26.6832 19.4999 26.5937 19.4105C26.5042 19.3211 26.4333 19.2145 26.385 19.0975C26.3367 18.9805 26.312 18.8554 26.3124 18.7289L26.3155 18.7318Z" fill="#131821"/>
</svg>
