<svg width="126" height="126" viewBox="0 0 126 126" fill="none" xmlns="http://www.w3.org/2000/svg">
<g filter="url(#filter0_d)">
<circle cx="63" cy="43" r="23" fill="#1DA1F2"/>
</g>
<path d="M71 38.5378C70.3981 38.8003 69.7616 38.9748 69.11 39.0558C69.7967 38.6484 70.3101 38.0034 70.553 37.2428C69.91 37.6241 69.2065 37.8927 68.473 38.0368C68.0232 37.5569 67.4395 37.2234 66.7977 37.0795C66.1559 36.9356 65.4856 36.9879 64.874 37.2298C64.2623 37.4716 63.7375 37.8917 63.3677 38.4356C62.9978 38.9795 62.8 39.6221 62.8 40.2798C62.7974 40.5312 62.8229 40.7821 62.876 41.0278C61.5711 40.9642 60.2942 40.6259 59.129 40.035C57.9638 39.4441 56.9364 38.614 56.114 37.5988C55.6919 38.3204 55.5611 39.176 55.7484 39.9907C55.9358 40.8055 56.4271 41.518 57.122 41.9828C56.6031 41.9701 56.0948 41.833 55.64 41.5828V41.6188C55.6418 42.376 55.9039 43.1095 56.3824 43.6963C56.8609 44.2832 57.5267 44.6876 58.268 44.8418C57.9874 44.9158 57.6982 44.9521 57.408 44.9498C57.1996 44.9535 56.9914 44.9347 56.787 44.8938C56.9989 45.5448 57.4075 46.1141 57.9564 46.5234C58.5053 46.9326 59.1676 47.1616 59.852 47.1788C58.691 48.0871 57.2591 48.5801 55.785 48.5788C55.5225 48.5783 55.2603 48.5609 55 48.5268C56.4999 49.4933 58.2477 50.0046 60.032 49.9988C61.2602 50.0073 62.4779 49.7717 63.6143 49.3057C64.7507 48.8396 65.7832 48.1524 66.6518 47.284C67.5204 46.4156 68.2078 45.3833 68.6741 44.247C69.1404 43.1107 69.3762 41.893 69.368 40.6648C69.368 40.5198 69.363 40.3798 69.356 40.2408C70.003 39.7778 70.5601 39.2007 71 38.5378Z" fill="white"/>
<defs>
<filter id="filter0_d" x="0" y="0" width="126" height="126" filterUnits="userSpaceOnUse" color-interpolation-filters="sRGB">
<feFlood flood-opacity="0" result="BackgroundImageFix"/>
<feColorMatrix in="SourceAlpha" type="matrix" values="0 0 0 0 0 0 0 0 0 0 0 0 0 0 0 0 0 0 127 0"/>
<feOffset dy="20"/>
<feGaussianBlur stdDeviation="20"/>
<feColorMatrix type="matrix" values="0 0 0 0 0.0745098 0 0 0 0 0.0941176 0 0 0 0 0.129412 0 0 0 0.3 0"/>
<feBlend mode="normal" in2="BackgroundImageFix" result="effect1_dropShadow"/>
<feBlend mode="normal" in="SourceGraphic" in2="effect1_dropShadow" result="shape"/>
</filter>
</defs>
</svg>
