<svg width="46" height="46" viewBox="0 0 46 46" fill="none" xmlns="http://www.w3.org/2000/svg">
<circle cx="23" cy="23" r="22" stroke="#E2E3E4" stroke-width="2"/>
<path opacity="0.3" d="M31 18.5378C30.3981 18.8003 29.7616 18.9748 29.11 19.0558C29.7967 18.6484 30.3101 18.0034 30.553 17.2428C29.91 17.6241 29.2065 17.8927 28.473 18.0368C28.0232 17.5569 27.4395 17.2234 26.7977 17.0795C26.1559 16.9356 25.4856 16.9879 24.874 17.2298C24.2623 17.4716 23.7375 17.8917 23.3677 18.4356C22.9978 18.9795 22.8 19.6221 22.8 20.2798C22.7974 20.5312 22.8229 20.7821 22.876 21.0278C21.5711 20.9642 20.2942 20.6259 19.129 20.035C17.9638 19.4441 16.9364 18.614 16.114 17.5988C15.6919 18.3204 15.5611 19.176 15.7484 19.9907C15.9358 20.8055 16.4271 21.518 17.122 21.9828C16.6031 21.9701 16.0948 21.833 15.64 21.5828V21.6188C15.6418 22.376 15.9039 23.1095 16.3824 23.6963C16.8609 24.2832 17.5267 24.6876 18.268 24.8418C17.9874 24.9158 17.6982 24.9521 17.408 24.9498C17.1996 24.9535 16.9914 24.9347 16.787 24.8938C16.9989 25.5448 17.4075 26.1141 17.9564 26.5234C18.5053 26.9326 19.1676 27.1616 19.852 27.1788C18.691 28.0871 17.2591 28.5801 15.785 28.5788C15.5225 28.5783 15.2603 28.5609 15 28.5268C16.4999 29.4933 18.2477 30.0046 20.032 29.9988C21.2602 30.0073 22.4779 29.7717 23.6143 29.3057C24.7507 28.8396 25.7832 28.1524 26.6518 27.284C27.5204 26.4156 28.2078 25.3833 28.6741 24.247C29.1404 23.1107 29.3762 21.893 29.368 20.6648C29.368 20.5198 29.363 20.3798 29.356 20.2408C30.003 19.7778 30.5601 19.2007 31 18.5378Z" fill="#131821"/>
</svg>
