<svg width="46" height="46" viewBox="0 0 46 46" fill="none" xmlns="http://www.w3.org/2000/svg">
<circle cx="23" cy="23" r="22" stroke="#E2E3E4" stroke-width="2"/>
<path opacity="0.3" d="M23.0039 28C21.0569 28 18.556 27.97 17.543 27.913C16.615 27.849 16.1287 27.7321 15.6787 26.9351C15.2287 26.1381 15 24.735 15 22.507V22.4969C15 20.2369 15.2087 18.869 15.6787 18.061C16.1127 17.294 16.5839 17.147 17.5449 17.092C18.5659 17.024 21.1239 17 23.0039 17C24.8839 17 27.435 17.024 28.458 17.092C29.419 17.147 29.8913 17.292 30.3203 18.061C30.7913 18.861 31.001 20.228 31.001 22.499V22.506C31.001 24.778 30.7923 26.145 30.3223 26.937C29.8923 27.699 29.422 27.849 28.458 27.913C27.448 27.969 24.9499 28 23.0039 28ZM21.0039 19.5V25.5L26.0039 22.5L21.0039 19.5Z" fill="#131821"/>
</svg>
